<svg width="23" height="16" viewBox="0 0 23 16" fill="none" xmlns="http://www.w3.org/2000/svg">
<path d="M10.5 9.33301L1.277 15.482C1.20171 15.5321 1.11423 15.5609 1.02389 15.5652C0.933553 15.5695 0.843733 15.5492 0.763999 15.5065C0.684266 15.4639 0.617604 15.4003 0.571114 15.3228C0.524624 15.2452 0.500047 15.1564 0.5 15.066V0.934007C0.500047 0.843565 0.524624 0.754829 0.571114 0.67725C0.617604 0.599672 0.684266 0.536155 0.763999 0.493466C0.843733 0.450778 0.933553 0.430515 1.02389 0.434836C1.11423 0.439158 1.20171 0.467902 1.277 0.518007L10.5 6.66701V0.934007C10.5 0.843565 10.5246 0.754829 10.5711 0.67725C10.6176 0.599672 10.6843 0.536155 10.764 0.493466C10.8437 0.450778 10.9336 0.430515 11.0239 0.434836C11.1142 0.439158 11.2017 0.467902 11.277 0.518007L21.876 7.58401C21.9445 7.62967 22.0006 7.69153 22.0395 7.7641C22.0783 7.83667 22.0986 7.9177 22.0986 8.00001C22.0986 8.08231 22.0783 8.16335 22.0395 8.23592C22.0006 8.30849 21.9445 8.37035 21.876 8.41601L11.277 15.482C11.2017 15.5321 11.1142 15.5609 11.0239 15.5652C10.9336 15.5695 10.8437 15.5492 10.764 15.5065C10.6843 15.4639 10.6176 15.4003 10.5711 15.3228C10.5246 15.2452 10.5 15.1564 10.5 15.066V9.33301ZM8.894 8.00001L2.5 3.73701V12.263L8.894 8.00001ZM12.5 3.73701V12.263L18.894 8.00001L12.5 3.73701Z" fill="white"/>
</svg>
