<svg width="16" height="15" viewBox="0 0 16 15" fill="none" xmlns="http://www.w3.org/2000/svg">
<path d="M0.667969 11.7769V13.0001C0.667969 14.0113 3.13151 14.8334 6.16797 14.8334C9.20443 14.8334 11.668 14.0113 11.668 13.0001V11.7769C10.4849 12.6105 8.32213 13.0001 6.16797 13.0001C4.0138 13.0001 1.85104 12.6105 0.667969 11.7769ZM9.83463 3.83341C12.8711 3.83341 15.3346 3.01128 15.3346 2.00008C15.3346 0.988883 12.8711 0.166748 9.83463 0.166748C6.79818 0.166748 4.33464 0.988883 4.33464 2.00008C4.33464 3.01128 6.79818 3.83341 9.83463 3.83341ZM0.667969 8.77196V10.2501C0.667969 11.2613 3.13151 12.0834 6.16797 12.0834C9.20443 12.0834 11.668 11.2613 11.668 10.2501V8.77196C10.4849 9.74591 8.31927 10.2501 6.16797 10.2501C4.01667 10.2501 1.85104 9.74591 0.667969 8.77196ZM12.5846 9.08706C14.226 8.76909 15.3346 8.17899 15.3346 7.50008V6.2769C14.6701 6.7467 13.6932 7.06753 12.5846 7.26519V9.08706ZM6.16797 4.75008C3.13151 4.75008 0.667969 5.7756 0.667969 7.04175C0.667969 8.30789 3.13151 9.33341 6.16797 9.33341C9.20443 9.33341 11.668 8.30789 11.668 7.04175C11.668 5.7756 9.20443 4.75008 6.16797 4.75008ZM12.45 6.36284C14.1687 6.05347 15.3346 5.44618 15.3346 4.75008V3.5269C14.3177 4.24591 12.5703 4.63263 10.7312 4.7243C11.5763 5.13394 12.1979 5.68394 12.45 6.36284Z" fill="#AC9DBC"/>
</svg>
