<svg width="14" height="15" viewBox="0 0 14 15" fill="none" xmlns="http://www.w3.org/2000/svg">
<path d="M6.9987 0.833252C10.6807 0.833252 13.6654 3.81792 13.6654 7.49992C13.6654 11.1819 10.6807 14.1666 6.9987 14.1666C3.3167 14.1666 0.332031 11.1819 0.332031 7.49992C0.332031 3.81792 3.3167 0.833252 6.9987 0.833252ZM6.9987 10.1666C6.82189 10.1666 6.65232 10.2368 6.52729 10.3618C6.40227 10.4869 6.33203 10.6564 6.33203 10.8333C6.33203 11.0101 6.40227 11.1796 6.52729 11.3047C6.65232 11.4297 6.82189 11.4999 6.9987 11.4999C7.17551 11.4999 7.34508 11.4297 7.4701 11.3047C7.59513 11.1796 7.66536 11.0101 7.66536 10.8333C7.66536 10.6564 7.59513 10.4869 7.4701 10.3618C7.34508 10.2368 7.17551 10.1666 6.9987 10.1666ZM6.9987 3.83325C6.35776 3.83325 5.74307 4.08786 5.28986 4.54108C4.83664 4.99429 4.58203 5.60898 4.58203 6.24992C4.58203 6.42673 4.65227 6.5963 4.77729 6.72132C4.90232 6.84635 5.07189 6.91658 5.2487 6.91658C5.42551 6.91658 5.59508 6.84635 5.7201 6.72132C5.84513 6.5963 5.91536 6.42673 5.91536 6.24992C5.91559 6.05328 5.96932 5.8604 6.07082 5.69198C6.17232 5.52355 6.31774 5.38593 6.4915 5.29386C6.66526 5.2018 6.8608 5.15877 7.05716 5.16938C7.25351 5.17999 7.44328 5.24385 7.6061 5.3541C7.76893 5.46436 7.89868 5.61685 7.98143 5.79523C8.06418 5.97361 8.09682 6.17116 8.07585 6.36668C8.05488 6.5622 7.98108 6.74832 7.86238 6.9051C7.74367 7.06187 7.58454 7.18337 7.40203 7.25659C6.95136 7.43658 6.33203 7.89792 6.33203 8.66658V8.83325C6.33203 9.01006 6.40227 9.17963 6.52729 9.30466C6.65232 9.42968 6.82189 9.49992 6.9987 9.49992C7.17551 9.49992 7.34508 9.42968 7.4701 9.30466C7.59513 9.17963 7.66536 9.01006 7.66536 8.83325C7.66536 8.67058 7.6987 8.58925 7.83936 8.51992L7.89736 8.49325C8.41791 8.28385 8.84939 7.89989 9.11785 7.4072C9.38631 6.91451 9.47503 6.34377 9.36878 5.79284C9.26253 5.24191 8.96795 4.74509 8.53553 4.38757C8.10311 4.03004 7.55978 3.83407 6.9987 3.83325Z" fill="#AC9DBC"/>
</svg>
