<svg width="20" height="20" viewBox="0 0 20 20" fill="none" xmlns="http://www.w3.org/2000/svg">
<path fill-rule="evenodd" clip-rule="evenodd" d="M20 10C20 15.5228 15.5228 20 10 20C4.47715 20 0 15.5228 0 10C0 4.47715 4.47715 0 10 0C15.5228 0 20 4.47715 20 10ZM12.0085 15.2409L9.1676 13.1421L7.80256 14.4694L7.78971 14.4819C7.63705 14.6305 7.51075 14.7535 7.23438 14.7535L7.42775 11.8564L7.42916 11.8573L12.6983 7.10231C12.9296 6.89706 12.6478 6.79698 12.3408 6.98314L5.83767 11.0859L3.02867 10.2092C2.42205 10.0234 2.41769 9.60657 3.16486 9.30688L14.1109 5.08614C14.6108 4.85917 15.0933 5.20622 14.9025 5.97139L13.0384 14.7558C12.9082 15.38 12.531 15.5293 12.0085 15.2409Z" fill="#AC9DBC"/>
</svg>
