<svg width="20" height="20" viewBox="0 0 20 20" fill="none" xmlns="http://www.w3.org/2000/svg">
<path fill-rule="evenodd" clip-rule="evenodd" d="M20 10C20 15.5228 15.5228 20 10 20C4.47715 20 0 15.5228 0 10C0 4.47715 4.47715 0 10 0C15.5228 0 20 4.47715 20 10ZM16.1163 13.3836C16.1212 13.3927 16.1248 13.3995 16.1274 13.4041C16.5829 14.1764 15.6221 14.237 15.6221 14.237L13.7855 14.2634C13.7855 14.2634 13.391 14.3434 12.8719 13.9787C12.6004 13.788 12.335 13.4769 12.0822 13.1805C11.6953 12.7271 11.3378 12.308 11.0327 12.4068C10.5205 12.5729 10.5368 13.7002 10.5368 13.7002C10.5368 13.7002 10.5411 13.9409 10.4242 14.0692C10.2979 14.2089 10.0495 14.237 10.0495 14.237H9.22787C9.22787 14.237 7.41446 14.3486 5.81676 12.6484C4.07554 10.7936 2.53715 7.11467 2.53715 7.11467C2.53715 7.11467 2.44863 6.87392 2.54488 6.75706C2.65317 6.62614 2.94796 6.61735 2.94796 6.61735L4.91263 6.60505C4.91263 6.60505 5.09827 6.63668 5.23063 6.73597C5.33978 6.81769 5.4008 6.97057 5.4008 6.97057C5.4008 6.97057 5.71879 7.79211 6.13905 8.53458C6.95982 9.98523 7.34227 10.3024 7.62158 10.1469C8.0281 9.92021 7.90606 8.09701 7.90606 8.09701C7.90606 8.09701 7.91379 7.4345 7.70151 7.14015C7.53736 6.9117 7.22796 6.84492 7.09131 6.82647C6.98044 6.81153 7.16178 6.54882 7.39727 6.43108C7.7505 6.25447 8.37531 6.24392 9.11271 6.25183C9.68767 6.25798 9.85268 6.29489 10.0779 6.35024C10.5994 6.47881 10.5832 6.89142 10.5482 7.78191C10.5377 8.04768 10.5256 8.35601 10.5256 8.71206C10.5256 8.7924 10.5233 8.87807 10.521 8.96622C10.5087 9.42182 10.4947 9.94362 10.7878 10.1372C10.9382 10.2365 11.3069 10.1522 12.2273 8.55391C12.6639 7.79651 12.9914 6.90555 12.9914 6.90555C12.9914 6.90555 13.0627 6.74739 13.1736 6.67886C13.2879 6.60944 13.4408 6.63053 13.4408 6.63053L15.5069 6.61823C15.5069 6.61823 16.1283 6.54267 16.2289 6.82911C16.3346 7.12961 15.9968 7.83253 15.152 8.98357C14.3488 10.078 13.9588 10.4791 13.9964 10.8352C14.0237 11.094 14.277 11.329 14.7618 11.7891C15.783 12.7581 16.0532 13.2652 16.1163 13.3836Z" fill="#AC9DBC"/>
</svg>
