<svg width="129" height="28" viewBox="0 0 129 28" fill="none" xmlns="http://www.w3.org/2000/svg">
<path d="M43.44 22V9.04H45.321V20.227H51.189V22H43.44ZM57.658 22.27C56.686 22.27 55.843 22.051 55.129 21.613C54.415 21.175 53.863 20.572 53.473 19.804C53.089 19.03 52.897 18.139 52.897 17.131C52.897 16.117 53.095 15.226 53.491 14.458C53.887 13.684 54.442 13.084 55.156 12.658C55.87 12.226 56.704 12.01 57.658 12.01C58.63 12.01 59.473 12.229 60.187 12.667C60.901 13.105 61.453 13.708 61.843 14.476C62.233 15.244 62.428 16.129 62.428 17.131C62.428 18.145 62.23 19.039 61.834 19.813C61.444 20.581 60.892 21.184 60.178 21.622C59.464 22.054 58.624 22.27 57.658 22.27ZM57.658 20.497C58.588 20.497 59.281 20.185 59.737 19.561C60.199 18.931 60.43 18.121 60.43 17.131C60.43 16.117 60.196 15.307 59.728 14.701C59.266 14.089 58.576 13.783 57.658 13.783C57.028 13.783 56.509 13.927 56.101 14.215C55.693 14.497 55.39 14.89 55.192 15.394C54.994 15.892 54.895 16.471 54.895 17.131C54.895 18.151 55.129 18.967 55.597 19.579C56.065 20.191 56.752 20.497 57.658 20.497ZM69.1308 26.59C68.6088 26.59 68.1018 26.509 67.6098 26.347C67.1238 26.185 66.6798 25.945 66.2778 25.627C65.8758 25.315 65.5428 24.928 65.2788 24.466L67.0158 23.584C67.2258 23.998 67.5258 24.301 67.9158 24.493C68.3058 24.685 68.7168 24.781 69.1488 24.781C69.6828 24.781 70.1388 24.685 70.5168 24.493C70.8948 24.307 71.1798 24.025 71.3718 23.647C71.5698 23.269 71.6658 22.801 71.6598 22.243V19.525H71.8848V12.28H73.5498V22.261C73.5498 22.519 73.5408 22.765 73.5228 22.999C73.5048 23.233 73.4718 23.467 73.4238 23.701C73.2858 24.355 73.0218 24.895 72.6318 25.321C72.2478 25.747 71.7558 26.065 71.1558 26.275C70.5618 26.485 69.8868 26.59 69.1308 26.59ZM68.9868 22.27C68.0808 22.27 67.2978 22.045 66.6378 21.595C65.9838 21.145 65.4768 20.533 65.1168 19.759C64.7628 18.979 64.5858 18.103 64.5858 17.131C64.5858 16.153 64.7658 15.28 65.1258 14.512C65.4858 13.738 65.9958 13.129 66.6558 12.685C67.3218 12.235 68.1108 12.01 69.0228 12.01C69.9408 12.01 70.7118 12.235 71.3358 12.685C71.9658 13.129 72.4398 13.738 72.7578 14.512C73.0818 15.286 73.2438 16.159 73.2438 17.131C73.2438 18.103 73.0818 18.976 72.7578 19.75C72.4338 20.524 71.9568 21.139 71.3268 21.595C70.6968 22.045 69.9168 22.27 68.9868 22.27ZM69.2478 20.569C69.8658 20.569 70.3698 20.422 70.7598 20.128C71.1498 19.834 71.4348 19.429 71.6148 18.913C71.7948 18.397 71.8848 17.803 71.8848 17.131C71.8848 16.459 71.7918 15.865 71.6058 15.349C71.4258 14.833 71.1438 14.431 70.7598 14.143C70.3818 13.855 69.8988 13.711 69.3108 13.711C68.6868 13.711 68.1738 13.864 67.7718 14.17C67.3698 14.476 67.0698 14.887 66.8718 15.403C66.6798 15.919 66.5838 16.495 66.5838 17.131C66.5838 17.773 66.6798 18.355 66.8718 18.877C67.0698 19.393 67.3638 19.804 67.7538 20.11C68.1498 20.416 68.6478 20.569 69.2478 20.569ZM81.018 22.27C80.046 22.27 79.203 22.051 78.489 21.613C77.775 21.175 77.223 20.572 76.833 19.804C76.449 19.03 76.257 18.139 76.257 17.131C76.257 16.117 76.455 15.226 76.851 14.458C77.247 13.684 77.802 13.084 78.516 12.658C79.23 12.226 80.064 12.01 81.018 12.01C81.99 12.01 82.833 12.229 83.547 12.667C84.261 13.105 84.813 13.708 85.203 14.476C85.593 15.244 85.788 16.129 85.788 17.131C85.788 18.145 85.59 19.039 85.194 19.813C84.804 20.581 84.252 21.184 83.538 21.622C82.824 22.054 81.984 22.27 81.018 22.27ZM81.018 20.497C81.948 20.497 82.641 20.185 83.097 19.561C83.559 18.931 83.79 18.121 83.79 17.131C83.79 16.117 83.556 15.307 83.088 14.701C82.626 14.089 81.936 13.783 81.018 13.783C80.388 13.783 79.869 13.927 79.461 14.215C79.053 14.497 78.75 14.89 78.552 15.394C78.354 15.892 78.255 16.471 78.255 17.131C78.255 18.151 78.489 18.967 78.957 19.579C79.425 20.191 80.112 20.497 81.018 20.497ZM94.0477 22C93.4357 22.12 92.8357 22.171 92.2477 22.153C91.6597 22.135 91.1347 22.021 90.6727 21.811C90.2107 21.601 89.8627 21.271 89.6287 20.821C89.4187 20.419 89.3047 20.011 89.2867 19.597C89.2747 19.177 89.2687 18.703 89.2687 18.175V9.58H91.1587V18.085C91.1587 18.475 91.1617 18.814 91.1677 19.102C91.1797 19.39 91.2427 19.633 91.3567 19.831C91.5727 20.203 91.9147 20.416 92.3827 20.47C92.8567 20.518 93.4117 20.497 94.0477 20.407V22ZM87.4057 13.792V12.28H94.0477V13.792H87.4057ZM97.8674 26.32L99.7484 21.199L99.7754 22.711L95.5364 12.28H97.4984L100.666 20.335H100.09L103.114 12.28H105.022L99.6584 26.32H97.8674ZM111.715 22.27C110.785 22.27 110.005 22.045 109.375 21.595C108.745 21.139 108.268 20.524 107.944 19.75C107.62 18.976 107.458 18.103 107.458 17.131C107.458 16.159 107.617 15.286 107.935 14.512C108.259 13.738 108.733 13.129 109.357 12.685C109.987 12.235 110.761 12.01 111.679 12.01C112.591 12.01 113.377 12.235 114.037 12.685C114.703 13.129 115.216 13.738 115.576 14.512C115.936 15.28 116.116 16.153 116.116 17.131C116.116 18.103 115.936 18.979 115.576 19.759C115.222 20.533 114.715 21.145 114.055 21.595C113.401 22.045 112.621 22.27 111.715 22.27ZM107.143 26.32V12.28H108.817V19.273H109.033V26.32H107.143ZM111.454 20.569C112.054 20.569 112.549 20.416 112.939 20.11C113.335 19.804 113.629 19.393 113.821 18.877C114.019 18.355 114.118 17.773 114.118 17.131C114.118 16.495 114.019 15.919 113.821 15.403C113.629 14.887 113.332 14.476 112.93 14.17C112.528 13.864 112.015 13.711 111.391 13.711C110.803 13.711 110.317 13.855 109.933 14.143C109.555 14.431 109.273 14.833 109.087 15.349C108.907 15.865 108.817 16.459 108.817 17.131C108.817 17.803 108.907 18.397 109.087 18.913C109.267 19.429 109.552 19.834 109.942 20.128C110.332 20.422 110.836 20.569 111.454 20.569ZM123.134 22.27C122.168 22.27 121.319 22.06 120.587 21.64C119.861 21.214 119.294 20.623 118.886 19.867C118.484 19.105 118.283 18.223 118.283 17.221C118.283 16.159 118.481 15.238 118.877 14.458C119.279 13.678 119.837 13.075 120.551 12.649C121.265 12.223 122.096 12.01 123.044 12.01C124.034 12.01 124.877 12.241 125.573 12.703C126.269 13.159 126.788 13.81 127.13 14.656C127.478 15.502 127.616 16.507 127.544 17.671H125.663V16.987C125.651 15.859 125.435 15.025 125.015 14.485C124.601 13.945 123.968 13.675 123.116 13.675C122.174 13.675 121.466 13.972 120.992 14.566C120.518 15.16 120.281 16.018 120.281 17.14C120.281 18.208 120.518 19.036 120.992 19.624C121.466 20.206 122.15 20.497 123.044 20.497C123.632 20.497 124.139 20.365 124.565 20.101C124.997 19.831 125.333 19.447 125.573 18.949L127.418 19.534C127.04 20.404 126.467 21.079 125.699 21.559C124.931 22.033 124.076 22.27 123.134 22.27ZM119.669 17.671V16.204H126.608V17.671H119.669Z" fill="white"/>
<path d="M19.0158 7.64179C19.3033 8.56859 20.1893 9.19553 21.1833 9.1754L27.7333 9.04271C29.9268 8.99828 30.8458 11.7527 29.0444 12.9724L23.6652 16.6144C22.8489 17.1671 22.5105 18.1815 22.8373 19.0959L24.991 25.1216C25.7121 27.1395 23.3063 28.8419 21.5585 27.5503L16.3395 23.6935C15.5476 23.1082 14.4524 23.1082 13.6604 23.6935L8.44132 27.5503C6.69352 28.8419 4.28768 27.1396 5.00891 25.1217L6.6928 20.4103C6.84165 19.9938 7.11795 19.6317 7.4845 19.3728L16.4266 13.0559C16.8653 12.7461 16.5257 12.076 16.0064 12.2264L5.71568 15.2076C5.06999 15.3947 4.37199 15.2854 3.81888 14.911L0.955632 12.9724C-0.845808 11.7527 0.0731439 8.99828 2.26669 9.04271L8.81667 9.1754C9.81061 9.19553 10.6966 8.5686 10.9841 7.6418L12.8787 1.53406C13.5131 -0.511363 16.4869 -0.511348 17.1214 1.53408L19.0158 7.64179Z" fill="#8C0000"/>
</svg>
