<svg width="24" height="20" viewBox="0 0 24 20" fill="none" xmlns="http://www.w3.org/2000/svg">
<path d="M2.74449 8.89356C2.74449 8.89356 11.9495 5.12734 15.142 3.80125C16.3657 3.27081 20.516 1.57333 20.516 1.57333C20.516 1.57333 22.4314 0.830827 22.2718 2.6342C22.2185 3.37684 21.7928 5.97601 21.3672 8.78739C20.7287 12.7658 20.037 17.1153 20.037 17.1153C20.037 17.1153 19.9307 18.3354 19.0262 18.5476C18.1216 18.7598 16.6318 17.805 16.3657 17.5928C16.1529 17.4336 12.3752 15.0466 10.9919 13.8797C10.6193 13.5615 10.1937 12.9249 11.045 12.1822C12.9605 10.4319 15.2484 8.25695 16.6318 6.87784C17.2702 6.24123 17.9088 4.75595 15.2484 6.55947C11.4707 9.15864 7.7461 11.5988 7.7461 11.5988C7.7461 11.5988 6.89489 12.1292 5.29866 11.6518C3.70243 11.1744 1.84013 10.5379 1.84013 10.5379C1.84013 10.5379 0.563253 9.74209 2.74477 8.89356H2.74449Z" stroke="white" stroke-width="2"/>
</svg>
