<svg width="22" height="22" viewBox="0 0 22 22" fill="none" xmlns="http://www.w3.org/2000/svg">
<g clip-path="url(#clip0_535_121)">
<path d="M10.0837 7.33341C10.0837 6.82716 10.4941 6.41675 11.0003 6.41675C11.5066 6.41675 11.917 6.82716 11.917 7.33341V10.0834H14.667C15.1733 10.0834 15.5837 10.4938 15.5837 11.0001C15.5837 11.5064 15.1733 11.9167 14.667 11.9167H11.917V14.6667C11.917 15.173 11.5066 15.5834 11.0003 15.5834C10.4941 15.5834 10.0837 15.173 10.0837 14.6667V11.9167H7.33366C6.82739 11.9167 6.41699 11.5064 6.41699 11.0001C6.41699 10.4938 6.8274 10.0834 7.33366 10.0834H10.0837V7.33341Z" fill="white"/>
<path fill-rule="evenodd" clip-rule="evenodd" d="M21.0837 11.0001C21.0837 16.5689 16.5692 21.0834 11.0003 21.0834C5.43146 21.0834 0.916992 16.5689 0.916992 11.0001C0.916992 5.43121 5.43146 0.916748 11.0003 0.916748C16.5692 0.916748 21.0837 5.43121 21.0837 11.0001ZM2.75659 11.0001C2.75659 15.553 6.44743 19.2438 11.0003 19.2438C15.5532 19.2438 19.2441 15.553 19.2441 11.0001C19.2441 6.44719 15.5532 2.75634 11.0003 2.75634C6.44743 2.75634 2.75659 6.44719 2.75659 11.0001Z" fill="white"/>
</g>
<defs>
<clipPath id="clip0_535_121">
<rect width="22" height="22" fill="white"/>
</clipPath>
</defs>
</svg>
