<svg width="14" height="24" viewBox="0 0 14 24" fill="none" xmlns="http://www.w3.org/2000/svg">
<g clip-path="url(#clip0_295_119)">
<path d="M12.8651 5.94161L7.61513 0.752C7.27301 0.416 6.72611 0.416 6.38486 0.752L1.13487 5.94161C0.968638 6.10523 0.875 6.32925 0.875 6.56374V10.9991C0.875 11.3535 1.08762 11.6729 1.41489 11.8076C1.74125 11.9433 2.11752 11.868 2.36862 11.6178L6.99997 6.98636L11.6313 11.6177C11.7985 11.7857 12.0225 11.8741 12.25 11.8741C12.3628 11.8741 12.4766 11.8531 12.5851 11.8076C12.9124 11.6729 13.125 11.3535 13.125 10.9991V6.56374C13.125 6.32925 13.0305 6.10523 12.8651 5.94161Z" fill="url(#paint0_linear_295_119)"/>
<path d="M12.8651 15.567L7.61513 10.3773C7.27301 10.0405 6.72611 10.0405 6.38486 10.3773L1.13487 15.567C0.968638 15.7306 0.875 15.9546 0.875 16.1891V20.6245C0.875 20.978 1.08762 21.2973 1.41489 21.433C1.74125 21.5695 2.11752 21.4933 2.36862 21.2431L6.99997 16.6117L11.6313 21.2431C11.7985 21.4102 12.0225 21.4994 12.25 21.4994C12.3628 21.4994 12.4766 21.4784 12.5851 21.433C12.9124 21.2973 13.125 20.978 13.125 20.6245V16.1891C13.125 15.9546 13.0305 15.7306 12.8651 15.567Z" fill="url(#paint1_linear_295_119)"/>
</g>
<defs>
<linearGradient id="paint0_linear_295_119" x1="7" y1="0.5" x2="9.92045" y2="12.6449" gradientUnits="userSpaceOnUse">
<stop stop-color="#FEDB2B"/>
<stop offset="1" stop-color="#FCB408"/>
</linearGradient>
<linearGradient id="paint1_linear_295_119" x1="7" y1="10.1247" x2="9.92095" y2="22.2706" gradientUnits="userSpaceOnUse">
<stop stop-color="#FEDB2B"/>
<stop offset="1" stop-color="#FCB408"/>
</linearGradient>
<clipPath id="clip0_295_119">
<rect width="13" height="24" fill="white" transform="translate(0.5)"/>
</clipPath>
</defs>
</svg>
