<svg width="22" height="22" viewBox="0 0 22 22" fill="none" xmlns="http://www.w3.org/2000/svg">
<circle cx="11" cy="11" r="10.5" fill="#1F1B26"/>
<path opacity="0.4" d="M9.81366 13.77C9.81366 13.462 9.84866 13.154 9.91866 12.846C9.99333 12.538 10.103 12.258 10.2477 12.006C10.3643 11.768 10.4903 11.5813 10.6257 11.446C10.7657 11.306 10.9243 11.1637 11.1017 11.019C11.2837 10.8743 11.4983 10.6713 11.7457 10.41C11.937 10.2 12.063 9.99467 12.1237 9.794C12.189 9.58867 12.2217 9.36467 12.2217 9.122C12.2217 8.996 12.2077 8.87467 12.1797 8.758C12.1563 8.64133 12.1097 8.53867 12.0397 8.45C11.9277 8.296 11.7783 8.18633 11.5917 8.121C11.4097 8.051 11.2137 8.016 11.0037 8.016C10.845 8.016 10.6887 8.03467 10.5347 8.072C10.3853 8.10933 10.257 8.17 10.1497 8.254C10.019 8.352 9.921 8.47567 9.85566 8.625C9.795 8.77433 9.767 8.94 9.77166 9.122H7.75566C7.81166 8.62267 7.954 8.16533 8.18266 7.75C8.41133 7.33467 8.70766 7.008 9.07166 6.77C9.33766 6.59267 9.63166 6.45733 9.95366 6.364C10.2757 6.27067 10.5977 6.224 10.9197 6.224C11.4517 6.224 11.9533 6.308 12.4247 6.476C12.896 6.63933 13.2857 6.91 13.5937 7.288C13.799 7.526 13.9577 7.80367 14.0697 8.121C14.1817 8.43367 14.2377 8.74867 14.2377 9.066C14.2377 9.57467 14.1233 10.0367 13.8947 10.452C13.666 10.8673 13.3837 11.2547 13.0477 11.614C12.903 11.768 12.7723 11.9033 12.6557 12.02C12.5437 12.132 12.441 12.2393 12.3477 12.342C12.259 12.44 12.1797 12.5427 12.1097 12.65C11.979 12.8647 11.8997 13.0397 11.8717 13.175C11.8437 13.3103 11.8297 13.5087 11.8297 13.77H9.81366ZM9.82766 16.5V14.484H11.8297V16.5H9.82766Z" fill="white"/>
</svg>
