<svg width="16" height="16" viewBox="0 0 16 16" fill="none" xmlns="http://www.w3.org/2000/svg">
<path fill-rule="evenodd" clip-rule="evenodd" d="M3.33333 2C2.59848 2 2 2.59848 2 3.33333V12.6667C2 13.4015 2.59848 14 3.33333 14H8C8.36819 14 8.66667 13.7015 8.66667 13.3333C8.66667 12.9651 8.36819 12.6667 8 12.6667H3.33333V3.33333H8C8.36819 3.33333 8.66667 3.03486 8.66667 2.66667C8.66667 2.29848 8.36819 2 8 2H3.33333ZM10.8619 5.19526C11.1223 4.93491 11.5444 4.93491 11.8047 5.19526L14.1381 7.5286C14.3984 7.78895 14.3984 8.21105 14.1381 8.4714L11.8047 10.8047C11.5444 11.0651 11.1223 11.0651 10.8619 10.8047C10.6016 10.5444 10.6016 10.1223 10.8619 9.86193L12.0572 8.66667H6C5.63181 8.66667 5.33333 8.36819 5.33333 8C5.33333 7.63181 5.63181 7.33333 6 7.33333H12.0572L10.8619 6.13807C10.6016 5.87772 10.6016 5.45561 10.8619 5.19526Z" fill="#AC9DBC"/>
</svg>
