<svg width="15" height="16" viewBox="0 0 15 16" fill="none" xmlns="http://www.w3.org/2000/svg">
<path fill-rule="evenodd" clip-rule="evenodd" d="M3.5 2.25C2.5335 2.25 1.75 3.0335 1.75 4C1.75 4.9665 2.5335 5.75 3.5 5.75C4.4665 5.75 5.25 4.9665 5.25 4C5.25 3.0335 4.4665 2.25 3.5 2.25ZM0 4C0 2.067 1.567 0.5 3.5 0.5C5.43296 0.5 7 2.067 7 4C7 5.93296 5.43296 7.5 3.5 7.5C1.567 7.5 0 5.93296 0 4ZM11.375 10.125C10.4085 10.125 9.625 10.9085 9.625 11.875C9.625 12.8415 10.4085 13.625 11.375 13.625C12.3415 13.625 13.125 12.8415 13.125 11.875C13.125 10.9085 12.3415 10.125 11.375 10.125ZM7.875 11.875C7.875 9.94204 9.44204 8.375 11.375 8.375C13.308 8.375 14.875 9.94204 14.875 11.875C14.875 13.808 13.308 15.375 11.375 15.375C9.44204 15.375 7.875 13.808 7.875 11.875ZM13.7437 2.86872C14.0854 2.52701 14.0854 1.97299 13.7437 1.63128C13.402 1.28957 12.848 1.28957 12.5063 1.63128L1.13128 13.0063C0.789574 13.348 0.789574 13.902 1.13128 14.2437C1.47299 14.5854 2.02701 14.5854 2.36872 14.2437L13.7437 2.86872Z" fill="black"/>
</svg>
