<svg width="15" height="14" viewBox="0 0 15 14" fill="none" xmlns="http://www.w3.org/2000/svg">
<path d="M9.48864 3.81329C9.6321 4.27577 10.0742 4.58862 10.5702 4.57857L13.8385 4.51236C14.9331 4.49019 15.3917 5.86465 14.4928 6.47329L11.8086 8.29067C11.4013 8.56646 11.2324 9.07266 11.3955 9.52895L12.4702 12.5358C12.83 13.5428 11.6295 14.3922 10.7574 13.7477L8.1532 11.8232C7.75806 11.5311 7.21157 11.5311 6.81638 11.8232L4.21211 13.7478C3.33998 14.3923 2.1395 13.5428 2.49938 12.5359L3.33962 10.1848C3.4139 9.97699 3.55177 9.7963 3.73467 9.66712L8.19667 6.51497C8.41556 6.36036 8.24614 6.026 7.987 6.10105L2.85205 7.58866C2.52986 7.68202 2.18157 7.62752 1.90557 7.44065L0.476848 6.47329C-0.422047 5.86465 0.0364978 4.49019 1.13105 4.51236L4.39941 4.57857C4.89537 4.58862 5.33748 4.27578 5.48094 3.8133L6.42628 0.765503C6.74287 -0.255173 8.22676 -0.255166 8.54335 0.765512L9.48864 3.81329Z" fill="#FFC400"/>
</svg>
