<svg width="22" height="20" viewBox="0 0 22 20" fill="none" xmlns="http://www.w3.org/2000/svg">
<path fill-rule="evenodd" clip-rule="evenodd" d="M21.1487 2.30721C21.4534 0.822016 19.9946 -0.412212 18.5804 0.134201L1.24492 6.832C-0.3344 7.44219 -0.40477 9.65064 1.13249 10.3601L4.90767 12.1025L6.70357 18.3882C6.79686 18.7147 7.05594 18.9675 7.38464 19.0527C7.71334 19.1378 8.06258 19.0427 8.30268 18.8025L11.0691 16.0361L14.9443 18.9425C16.0692 19.7862 17.6893 19.1717 17.9719 17.7943L21.1487 2.30721ZM1.93568 8.61986L19.2712 1.92207L16.0943 17.4092L11.5542 14.0041C11.1727 13.7179 10.6388 13.7559 10.3016 14.0931L9.11667 15.278L9.47269 13.32L16.4485 6.34423C16.788 6.00474 16.8239 5.46643 16.5324 5.08488C16.241 4.70333 15.7123 4.59632 15.2954 4.83452L5.66163 10.3395L1.93568 8.61986ZM6.83627 11.8758L7.41738 13.9098L7.64049 12.6826C7.67536 12.4909 7.76789 12.3142 7.90573 12.1764L10.0331 10.0491L6.83627 11.8758Z" fill="#8C0000"/>
</svg>
