<svg width="19" height="23" viewBox="0 0 19 23" fill="none" xmlns="http://www.w3.org/2000/svg">
<path d="M9.97149 0.739587C11.1481 0.721619 12.3161 0.730962 13.4833 0.721619C13.5221 2.1814 14.1144 3.49528 15.0566 4.46846L15.0552 4.46703C16.0694 5.38056 17.389 5.97281 18.8437 6.07343L18.8639 6.07487V9.69449C17.4896 9.65999 16.1973 9.34303 15.0322 8.79821L15.0911 8.82265C14.5276 8.55168 14.0511 8.27353 13.5983 7.96303L13.6357 7.98746C13.6271 10.6102 13.6443 13.2329 13.6177 15.8463C13.5437 17.1781 13.1009 18.3928 12.3908 19.407L12.4052 19.3847C11.2178 21.0852 9.29443 22.2015 7.10727 22.2676H7.09721C7.0088 22.2719 6.90458 22.2741 6.79965 22.2741C5.55621 22.2741 4.39399 21.9276 3.40355 21.326L3.4323 21.3426C1.62968 20.258 0.386239 18.4022 0.156239 16.2437L0.153365 16.2143C0.135396 15.7651 0.126771 15.3158 0.144739 14.876C0.496927 11.4411 3.3748 8.78384 6.87296 8.78384C7.26612 8.78384 7.65137 8.81762 8.02583 8.88159L7.98558 8.87584C8.00355 10.2048 7.94965 11.5345 7.94965 12.8635C7.64562 12.7535 7.29487 12.6895 6.92902 12.6895C5.5864 12.6895 4.4443 13.5477 4.02168 14.7459L4.01521 14.7674C3.91962 15.0743 3.86427 15.4272 3.86427 15.7924C3.86427 15.9404 3.87362 16.0871 3.89086 16.2308L3.88943 16.2136C4.12805 17.6841 5.38874 18.7939 6.9089 18.7939C6.95274 18.7939 6.99587 18.7931 7.03899 18.791H7.03252C8.08405 18.7594 8.99687 18.1937 9.51293 17.3578L9.52011 17.3449C9.71202 17.0775 9.84355 16.7541 9.8874 16.4026L9.88812 16.3925C9.97796 14.7847 9.94202 13.1862 9.95065 11.5783C9.95927 7.95871 9.94202 4.34771 9.96862 0.737431L9.97149 0.739587Z" fill="#8C0000"/>
</svg>
