<svg width="23" height="15" viewBox="0 0 23 15" fill="none" xmlns="http://www.w3.org/2000/svg">
<path fill-rule="evenodd" clip-rule="evenodd" d="M22.4298 12.1623C21.9085 11.1124 21.2217 10.1534 20.3957 9.32207C20.1146 8.99528 19.7851 8.6728 19.5277 8.42115L19.4918 8.38598C19.3591 8.25603 19.2494 8.14821 19.1597 8.05535C20.2891 6.48483 21.2558 4.8032 22.0445 3.03629L22.0763 2.965L22.0987 2.89018C22.2023 2.54241 22.3217 1.8811 21.8993 1.28345C21.4628 0.665728 20.7638 0.554322 20.2958 0.554322H18.1423C17.6934 0.533746 17.2488 0.65511 16.8722 0.901852C16.4927 1.15045 16.2024 1.51308 16.0427 1.93697C15.5789 3.04163 14.9987 4.09235 14.3124 5.07156V2.54799C14.3124 2.22178 14.2817 1.6761 13.9324 1.21552C13.5142 0.66406 12.9094 0.554322 12.4896 0.554322H9.0726C8.63237 0.544144 8.20421 0.701551 7.87518 0.995395C7.53823 1.29631 7.33173 1.71666 7.29948 2.16728L7.29643 2.20997V2.25277C7.29643 2.71802 7.48079 3.06121 7.62807 3.27704C7.69402 3.37367 7.76455 3.46164 7.8091 3.51719L7.81939 3.53001C7.86689 3.58926 7.8986 3.6288 7.93043 3.67209C8.01414 3.78596 8.13454 3.96152 8.16861 4.41583V5.82742C7.57953 4.85905 6.95811 3.57042 6.49054 2.19413L6.48336 2.173L6.47541 2.15216C6.35883 1.84682 6.17184 1.40253 5.79733 1.06255C5.35982 0.665364 4.84234 0.554322 4.37172 0.554322H2.18677C1.71066 0.554322 1.13669 0.665709 0.708415 1.11749C0.287262 1.56176 0.239563 2.0941 0.239563 2.37715V2.50473L0.266434 2.62945C0.871626 5.43844 2.11862 8.06896 3.90946 10.3153C4.72138 11.5956 5.82155 12.6689 7.12244 13.4489C8.44408 14.2414 9.93512 14.7085 11.4727 14.8118L11.5127 14.8145H11.553C12.2485 14.8145 12.9737 14.7545 13.519 14.3911C14.2546 13.9009 14.3124 13.148 14.3124 12.7728V11.6824C14.5012 11.8349 14.7354 12.0404 15.0221 12.3165C15.3688 12.6634 15.6448 12.964 15.8815 13.2264L16.0078 13.3669L16.0086 13.3677C16.1924 13.5724 16.3733 13.7739 16.538 13.9395C16.7451 14.1477 17.0004 14.3771 17.3214 14.5465C17.6689 14.73 18.0336 14.813 18.4211 14.813H20.6075C21.0681 14.813 21.7288 14.7041 22.1933 14.1656C22.6994 13.5787 22.6608 12.8594 22.5016 12.3425L22.473 12.2495L22.4298 12.1623ZM16.9488 12.2635C16.7027 11.9907 16.4059 11.6672 16.0308 11.2922L16.0277 11.2892C14.7281 10.0361 14.1208 9.81782 13.6915 9.81782C13.4631 9.81782 13.2104 9.8435 13.0464 10.0477C12.969 10.1441 12.9284 10.2605 12.9056 10.3817C12.8828 10.5027 12.8749 10.6449 12.8749 10.8067V12.7728C12.8749 13.017 12.8347 13.1196 12.7219 13.1949C12.5714 13.2951 12.2499 13.3764 11.561 13.377C10.2535 13.2878 8.98571 12.89 7.86166 12.2161C6.73531 11.5407 5.78552 10.6074 5.09052 9.49304L5.08296 9.48097L5.07401 9.46975C3.40529 7.39276 2.24251 4.9563 1.67735 2.35288C1.68042 2.22738 1.70761 2.15293 1.75166 2.10645C1.79706 2.05856 1.90705 1.99182 2.18677 1.99182H4.37172C4.61478 1.99182 4.74057 2.04469 4.8311 2.12688C4.93374 2.22006 5.02276 2.37829 5.13091 2.66081C5.6672 4.23821 6.39243 5.71337 7.07919 6.79802C7.42244 7.34015 7.76027 7.79142 8.06463 8.11026C8.21657 8.26954 8.36558 8.4014 8.50778 8.49522C8.64541 8.58598 8.80145 8.65757 8.96191 8.65757C9.04659 8.65757 9.14562 8.64885 9.24099 8.60658C9.34357 8.56125 9.42318 8.48555 9.47941 8.38406C9.57887 8.20466 9.60612 7.93891 9.60612 7.59075V4.36719L9.60564 4.35963C9.55596 3.57539 9.31919 3.13424 9.08863 2.82063C9.0381 2.75189 8.98827 2.68981 8.94467 2.63549L8.93273 2.6206C8.88485 2.5609 8.84676 2.51266 8.81546 2.46678C8.7581 2.38273 8.73587 2.32412 8.73405 2.26132C8.74153 2.18678 8.77666 2.11762 8.8327 2.06758C8.89086 2.01564 8.96697 1.98859 9.04488 1.99182H12.4896C12.6871 1.99182 12.7536 2.04001 12.787 2.08415C12.8343 2.14646 12.8749 2.27605 12.8749 2.54799V6.88791C12.8749 7.4034 13.1126 7.75242 13.4577 7.75242C13.8548 7.75242 14.1411 7.5115 14.6417 7.01086L14.65 7.00252L14.6575 6.99332C15.7795 5.62511 16.6965 4.10077 17.3791 2.4682L17.3834 2.45596C17.4347 2.3117 17.5318 2.1882 17.66 2.10429C17.788 2.02039 17.94 1.98069 18.0927 1.99126L18.1011 1.99182H20.2958C20.595 1.99182 20.6936 2.068 20.7254 2.11305C20.7592 2.16098 20.7828 2.2637 20.7253 2.46515C19.9384 4.22505 18.9653 5.89555 17.8231 7.44863L17.8159 7.45955C17.705 7.62918 17.5834 7.81682 17.5658 8.03225C17.5469 8.2636 17.647 8.47395 17.8221 8.69935C17.9498 8.88805 18.213 9.14574 18.4801 9.40718L18.5053 9.4318C18.7853 9.70589 19.0886 10.0028 19.3322 10.2903L19.3387 10.2978L19.3458 10.3049C20.0717 11.0291 20.6754 11.8662 21.1331 12.7835C21.2063 13.0332 21.1615 13.1609 21.1047 13.2267C21.0383 13.3038 20.8893 13.3755 20.6075 13.3755H18.4211C18.2503 13.3755 18.1185 13.3419 17.9926 13.2754C17.8614 13.2061 17.7265 13.0959 17.5572 12.9258C17.4209 12.7887 17.272 12.623 17.0903 12.4208C17.0453 12.3707 16.9982 12.3182 16.9488 12.2635Z" fill="#8C0000"/>
</svg>
