<svg width="16" height="18" viewBox="0 0 16 18" fill="none" xmlns="http://www.w3.org/2000/svg">
<path d="M9.79688 11.5156C11.3219 11.5156 12.7844 10.9098 13.8627 9.83149C14.9411 8.75315 15.5469 7.29062 15.5469 5.76562C15.5469 4.24063 14.9411 2.7781 13.8627 1.69976C12.7844 0.621427 11.3219 0.015625 9.79688 0.015625H4.40625C4.12032 0.0156393 3.8461 0.129232 3.64392 0.331416C3.44173 0.533601 3.32814 0.807818 3.32812 1.09375V9.35938H1.53125C1.24531 9.35938 0.971088 9.47296 0.7689 9.67515C0.566713 9.87734 0.453125 10.1516 0.453125 10.4375C0.453125 10.7234 0.566713 10.9977 0.7689 11.1998C0.971088 11.402 1.24531 11.5156 1.53125 11.5156H3.32812V12.9531H1.53125C1.24531 12.9531 0.971088 13.0667 0.7689 13.2689C0.566713 13.4711 0.453125 13.7453 0.453125 14.0312C0.453125 14.3172 0.566713 14.5914 0.7689 14.7936C0.971088 14.9958 1.24531 15.1094 1.53125 15.1094H3.32812V16.9062C3.32812 17.1922 3.44171 17.4664 3.6439 17.6686C3.84609 17.8708 4.12031 17.9844 4.40625 17.9844C4.69219 17.9844 4.96641 17.8708 5.1686 17.6686C5.37079 17.4664 5.48438 17.1922 5.48438 16.9062V15.1094H9.4375C9.72344 15.1094 9.99766 14.9958 10.1998 14.7936C10.402 14.5914 10.5156 14.3172 10.5156 14.0312C10.5156 13.7453 10.402 13.4711 10.1998 13.2689C9.99766 13.0667 9.72344 12.9531 9.4375 12.9531H5.48438V11.5156H9.79688ZM5.48438 2.17188H9.79688C10.75 2.17188 11.6641 2.5505 12.338 3.22446C13.012 3.89842 13.3906 4.8125 13.3906 5.76562C13.3906 6.71875 13.012 7.63283 12.338 8.30679C11.6641 8.98075 10.75 9.35938 9.79688 9.35938H5.48438V2.17188Z" fill="white"/>
</svg>
