<svg width="22" height="20" viewBox="0 0 22 20" fill="none" xmlns="http://www.w3.org/2000/svg">
<path d="M13.9449 5.45842C14.1558 6.12042 14.8055 6.56823 15.5344 6.55386L20.3377 6.45908C21.9463 6.42734 22.6203 8.39476 21.2992 9.266L17.3545 11.8674C16.7559 12.2622 16.5077 12.9868 16.7473 13.6399L18.3267 17.944C18.8556 19.3854 17.0913 20.6013 15.8096 19.6788L11.9823 16.9239C11.4016 16.5059 10.5984 16.5059 10.0176 16.9239L6.1903 19.6788C4.90858 20.6014 3.1443 19.3855 3.6732 17.9441L4.90805 14.5788C5.01721 14.2813 5.21983 14.0226 5.48863 13.8377L12.0462 9.32565C12.3679 9.10434 12.1189 8.62572 11.738 8.73316L4.1915 10.8625C3.718 10.9962 3.20613 10.9182 2.80051 10.6507L0.700797 9.266C-0.620259 8.39476 0.0536388 6.42734 1.66224 6.45908L6.46556 6.55386C7.19445 6.56823 7.8442 6.12043 8.05503 5.45843L9.44434 1.09576C9.90961 -0.365259 12.0904 -0.365249 12.5557 1.09577L13.9449 5.45842Z" fill="white"/>
</svg>
